<svg id="Слой_1" data-name="Слой 1" xmlns="http://www.w3.org/2000/svg" viewBox="0 0 450 229"><defs><style>.cls-1{fill:#f0f0f0;}</style></defs><title>logo-carbon-valley-light</title><path class="cls-1" d="M.11,19.71C1.13,9.48,9.54,1.07,19.76.87,39.71.48,59.67.33,79.63.3q72-.12,144,0,78,.11,156,.37c16,0,31.94,0,47.91.14a26.5,26.5,0,0,1,6.67.64c9.87,2.68,16,10.64,15.92,20.92-.11,12.47-.52,24.94-.84,37.41q-.72,28.92-1.49,57.85c-.34,13.21-.7,26.43-1,39.64a63.77,63.77,0,0,0,.33,7.44c.17,1.78.94,3.55.91,5.31-.24,11.8-.6,23.6-.95,35.4-.24,7.7-3.21,14-9.65,18.49-4.42,3.07-9.41,3.87-14.69,3.87l-128.69.5H24.46a10.74,10.74,0,0,0-1.87-.61c-11.21-1.64-18.92-9.86-19.38-21-.44-10.87-.83-21.75-.92-32.63,0-5.75.92-11.5.86-17.25-.11-12.37-.59-24.74-.91-37.12Q1.48,89.92.73,60.14C.49,50.09.34,40,.09,30ZM224.76,187.36h184a43.67,43.67,0,0,0,5.72-.3c3.88-.51,5.95-2.71,6.1-6.64q.51-12.84.8-25.68c.43-19.2.78-38.41,1.21-57.62.47-21.11,1-42.23,1.46-63.35.12-6-2.3-8.33-8.26-8.35-10.15,0-20.3-.15-30.45.08a20.56,20.56,0,0,0-8.11,2c-6.76,3.2-13.35,6.77-20,10.25s-12.76,2.11-16.5-4.32c-3.3-5.68-8.15-8-14.46-8H123.57c-6.08,0-10.68,2.34-13.82,7.71C106,39.57,100,41.23,93.32,37.83c-6.53-3.31-12.9-6.94-19.52-10a23.56,23.56,0,0,0-9-2.28c-10.14-.28-20.3-.12-30.45-.1-5.69,0-8.17,2.41-8.07,8,.27,14.63.64,29.26,1,43.9.33,14.79.69,29.59,1,44.39.38,18,.88,35.92,1,53.88.07,9.27,2,11.84,11.81,11.82Q132.91,187.26,224.76,187.36ZM94,28.16c0,2.61,1.94,5,4.14,5.07a5.46,5.46,0,0,0,5.37-5.4c0-2.74-2-5.14-4.31-5.13A5.22,5.22,0,0,0,94,28.16Zm262.31-.22a5.15,5.15,0,0,0-5.24-5.19c-2.2,0-4.21,2.32-4.27,4.95a5.35,5.35,0,0,0,5,5.53C354.18,33.31,356.27,30.86,356.29,27.94Z"/><path class="cls-1" d="M138.89,81.77A11.67,11.67,0,0,1,135.57,73V53.3a11.47,11.47,0,0,1,3.32-8.65,13.68,13.68,0,0,1,17.66,0,11.51,11.51,0,0,1,3.32,8.65V54a.75.75,0,0,1-.73.73L152,55c-.49,0-.73-.22-.73-.67V52.75a4.14,4.14,0,0,0-1-2.86,3.29,3.29,0,0,0-2.61-1.1,3.23,3.23,0,0,0-2.56,1.1,4.14,4.14,0,0,0-1,2.86v21a4,4,0,0,0,1,2.83,3.31,3.31,0,0,0,2.56,1.07,3.37,3.37,0,0,0,2.61-1.07,4,4,0,0,0,1-2.83V72.12a.7.7,0,0,1,.21-.52.73.73,0,0,1,.52-.22l7.13.31a.73.73,0,0,1,.73.73V73a11.65,11.65,0,0,1-3.35,8.74A12.15,12.15,0,0,1,147.69,85,12,12,0,0,1,138.89,81.77Z"/><path class="cls-1" d="M182.4,83.87l-1-5.85c0-.2-.13-.3-.37-.3h-7.73c-.25,0-.37.1-.37.3l-1,5.85c0,.45-.31.67-.8.67h-7.12c-.53,0-.73-.26-.61-.79l8.95-41.17a.73.73,0,0,1,.79-.67h8.23a.73.73,0,0,1,.79.67l8.89,41.17.06.24c0,.37-.22.55-.67.55h-7.31C182.7,84.54,182.44,84.32,182.4,83.87Zm-8-12.79h5.48c.21,0,.29-.1.25-.3l-2.87-16.63q-.06-.18-.18-.18t-.18.18l-2.74,16.63Q174.18,71.08,174.42,71.08Z"/><path class="cls-1" d="M212.06,83.93l-4.69-16.81q-.12-.24-.3-.24H205c-.21,0-.31.1-.31.3V83.81a.72.72,0,0,1-.73.73h-7.13a.69.69,0,0,1-.51-.21.7.7,0,0,1-.22-.52V42.64a.73.73,0,0,1,.73-.73h12.31a11.22,11.22,0,0,1,6,1.61,10.75,10.75,0,0,1,4,4.54,15,15,0,0,1,1.44,6.7,14,14,0,0,1-1.37,6.33,10.39,10.39,0,0,1-3.81,4.26.57.57,0,0,0-.18.16.2.2,0,0,0,0,.21l5.6,18,.06.24c0,.41-.22.61-.67.61h-7.31A.8.8,0,0,1,212.06,83.93Zm-7.37-34.35V60c0,.2.1.3.31.3h2.74a3.76,3.76,0,0,0,3.07-1.49,6.26,6.26,0,0,0,1.19-4,6.32,6.32,0,0,0-1.19-4,3.73,3.73,0,0,0-3.07-1.49H205C204.79,49.28,204.69,49.38,204.69,49.58Z"/><path class="cls-1" d="M247.32,81.49a12.76,12.76,0,0,1-8.83,3.05H227a.72.72,0,0,1-.52-.21.73.73,0,0,1-.21-.52V42.64a.72.72,0,0,1,.73-.73h10.17q6.09,0,9.53,2.92t3.44,8.71q0,6-4.14,8.77c-.16.12-.18.24-.06.37q4.82,3.41,4.81,10.11Q250.73,78.44,247.32,81.49ZM234.84,49.58v9.56c0,.21.1.31.3.31h2.19a4.1,4.1,0,0,0,3.23-1.31,5.39,5.39,0,0,0,1.16-3.69,5.79,5.79,0,0,0-1.13-3.83,4,4,0,0,0-3.26-1.34h-2.19A.27.27,0,0,0,234.84,49.58ZM241,75.65a6.56,6.56,0,0,0,1.16-4.14A7.11,7.11,0,0,0,241,67.24a3.67,3.67,0,0,0-3.11-1.58h-2.74a.27.27,0,0,0-.3.3V76.8c0,.21.1.31.3.31h2.68A3.83,3.83,0,0,0,241,75.65Z"/><path class="cls-1" d="M259.08,81.74A11.71,11.71,0,0,1,255.73,73V53.48a11.69,11.69,0,0,1,3.35-8.77,13.86,13.86,0,0,1,17.93,0,11.68,11.68,0,0,1,3.38,8.77V73A11.69,11.69,0,0,1,277,81.74a13.86,13.86,0,0,1-17.93,0Zm11.69-5.27a4.61,4.61,0,0,0,1-3.14V53.11a4.58,4.58,0,0,0-1-3.13A3.47,3.47,0,0,0,268,48.79,3.37,3.37,0,0,0,265.32,50a4.67,4.67,0,0,0-1,3.13V73.33a4.7,4.7,0,0,0,1,3.14A3.37,3.37,0,0,0,268,77.66,3.47,3.47,0,0,0,270.77,76.47Z"/><path class="cls-1" d="M304.23,42.12a.73.73,0,0,1,.52-.21h7.07a.73.73,0,0,1,.73.73V83.81a.7.7,0,0,1-.22.52.69.69,0,0,1-.51.21h-8a.76.76,0,0,1-.79-.61l-7.56-23.57q-.06-.18-.21-.15a.18.18,0,0,0-.15.21l.06,23.39a.72.72,0,0,1-.73.73h-7.07a.69.69,0,0,1-.51-.21.7.7,0,0,1-.22-.52V42.64a.73.73,0,0,1,.73-.73h8a.76.76,0,0,1,.79.61l7.62,23.57q.06.18.21.15c.1,0,.15-.09.15-.22L304,42.64A.72.72,0,0,1,304.23,42.12Z"/><path class="cls-1" d="M102.94,169.3,88.66,101.81l-.1-.4c0-.6.37-.9,1.1-.9h12.88a1.13,1.13,0,0,1,1.3,1.1l6.89,43.93c.06.27.16.4.3.4s.23-.13.3-.4L118,101.61a1.13,1.13,0,0,1,1.3-1.1h12.48c.87,0,1.2.44,1,1.3L118.41,169.3a1.18,1.18,0,0,1-1.29,1.1H104.24A1.19,1.19,0,0,1,102.94,169.3Z"/><path class="cls-1" d="M162,169.3l-1.59-9.58c0-.33-.2-.5-.6-.5H147.17c-.4,0-.6.17-.6.5L145,169.3a1.13,1.13,0,0,1-1.3,1.1H132c-.86,0-1.2-.43-1-1.3l14.68-67.49a1.19,1.19,0,0,1,1.3-1.1h13.48a1.19,1.19,0,0,1,1.29,1.1l14.58,67.49.1.4c0,.6-.37.9-1.1.9h-12A1.13,1.13,0,0,1,162,169.3Zm-13.08-21h9c.33,0,.47-.17.4-.5l-4.69-27.26q-.1-.3-.3-.3t-.3.3l-4.49,27.26C148.57,148.17,148.7,148.34,149,148.34Z"/><path class="cls-1" d="M184.46,170.05a1.12,1.12,0,0,1-.35-.85V101.71a1.2,1.2,0,0,1,1.2-1.2H197a1.2,1.2,0,0,1,1.2,1.2v56.11c0,.34.16.5.49.5h21a1.17,1.17,0,0,1,.85.35,1.19,1.19,0,0,1,.35.85v9.68a1.15,1.15,0,0,1-.35.85,1.13,1.13,0,0,1-.85.35H185.31A1.12,1.12,0,0,1,184.46,170.05Z"/><path class="cls-1" d="M229,170.05a1.12,1.12,0,0,1-.35-.85V101.71a1.2,1.2,0,0,1,1.19-1.2h11.69a1.2,1.2,0,0,1,1.19,1.2v56.11a.44.44,0,0,0,.5.5h21a1.2,1.2,0,0,1,1.2,1.2v9.68a1.2,1.2,0,0,1-1.2,1.2H229.83A1.11,1.11,0,0,1,229,170.05Z"/><path class="cls-1" d="M309.46,112.25a1.18,1.18,0,0,1-.85.34H287.74a.44.44,0,0,0-.5.5v15.78a.44.44,0,0,0,.5.5h12a1.12,1.12,0,0,1,.85.35,1.15,1.15,0,0,1,.35.85v9.68a1.17,1.17,0,0,1-.35.85,1.15,1.15,0,0,1-.85.35h-12a.44.44,0,0,0-.5.5v15.87a.44.44,0,0,0,.5.5h20.87a1.2,1.2,0,0,1,1.2,1.2v9.68a1.2,1.2,0,0,1-1.2,1.2H274.36a1.18,1.18,0,0,1-1.19-1.2V101.71a1.18,1.18,0,0,1,1.19-1.2h34.25a1.2,1.2,0,0,1,1.2,1.2v9.69A1.19,1.19,0,0,1,309.46,112.25Z"/><path class="cls-1" d="M331.42,170a1.15,1.15,0,0,1-.35-.85V143.15l-.1-.6-14-40.64a1.2,1.2,0,0,1-.1-.5c0-.6.37-.9,1.1-.9h12.28a1.33,1.33,0,0,1,1.4,1l6.19,23.86q.11.3.3.3t.3-.3l6.19-23.86a1.32,1.32,0,0,1,1.4-1h12.28a1.13,1.13,0,0,1,.9.35,1.11,1.11,0,0,1,.1,1l-14.08,40.64-.1.6V169.1a1.15,1.15,0,0,1-.35.85,1.13,1.13,0,0,1-.85.35H332.27A1.13,1.13,0,0,1,331.42,170Z"/></svg>